<mxfile host="app.diagrams.net" modified="2023-07-10T09:14:27.280Z" agent="Mozilla/5.0 (Windows NT 10.0; Win64; x64) AppleWebKit/537.36 (KHTML, like Gecko) Chrome/114.0.0.0 Safari/537.36" etag="dojv6Kf0qCnSCFFmpQkU" version="21.6.1" type="github">
  <diagram id="2f404044-711c-603c-8f00-f6bb4c023d3c" name="Page-1">
    <mxGraphModel dx="1140" dy="651" grid="1" gridSize="10" guides="1" tooltips="1" connect="1" arrows="1" fold="1" page="1" pageScale="1" pageWidth="1169" pageHeight="827" background="none" math="0" shadow="0">
      <root>
        <mxCell id="0" />
        <mxCell id="1" parent="0" />
        <mxCell id="63" value="" style="swimlane;shadow=0;strokeColor=#4277BB;fillColor=#ffffff;fontColor=none;align=right;startSize=0;collapsible=0;noLabel=1;strokeWidth=3;" parent="1" vertex="1">
          <mxGeometry x="85" y="34" width="997" height="760" as="geometry" />
        </mxCell>
        <mxCell id="261" style="edgeStyle=orthogonalEdgeStyle;rounded=0;html=1;labelBackgroundColor=#ffffff;startArrow=classic;startFill=1;startSize=4;endArrow=classic;endFill=1;endSize=4;jettySize=auto;orthogonalLoop=1;strokeColor=#4277BB;strokeWidth=2;fontSize=12;fontColor=#4277BB;" parent="63" source="119" target="244" edge="1">
          <mxGeometry relative="1" as="geometry" />
        </mxCell>
        <mxCell id="265" style="edgeStyle=orthogonalEdgeStyle;rounded=0;html=1;labelBackgroundColor=#ffffff;startArrow=classic;startFill=1;startSize=4;endArrow=classic;endFill=1;endSize=4;jettySize=auto;orthogonalLoop=1;strokeColor=#4277BB;strokeWidth=2;fontSize=12;fontColor=#4277BB;entryX=0;entryY=0.5;" parent="63" source="211" target="247" edge="1">
          <mxGeometry relative="1" as="geometry">
            <Array as="points">
              <mxPoint x="807" y="76" />
              <mxPoint x="807" y="76" />
            </Array>
          </mxGeometry>
        </mxCell>
        <mxCell id="242" style="edgeStyle=elbowEdgeStyle;rounded=0;elbow=vertical;html=1;exitX=0;exitY=0.5;entryX=0;entryY=0.5;labelBackgroundColor=#ffffff;startArrow=classic;startFill=1;startSize=4;endArrow=none;endFill=0;endSize=4;jettySize=auto;orthogonalLoop=1;strokeColor=#4277BB;strokeWidth=2;fontSize=12;fontColor=#4277BB;" parent="63" source="174" target="174" edge="1">
          <mxGeometry relative="1" as="geometry" />
        </mxCell>
        <mxCell id="279" style="edgeStyle=orthogonalEdgeStyle;rounded=0;html=1;labelBackgroundColor=#ffffff;startArrow=classic;startFill=1;startSize=4;endArrow=classic;endFill=1;endSize=4;jettySize=auto;orthogonalLoop=1;strokeColor=#4277BB;strokeWidth=2;fontSize=12;fontColor=#4277BB;" parent="63" source="243" target="119" edge="1">
          <mxGeometry relative="1" as="geometry" />
        </mxCell>
        <mxCell id="262" style="edgeStyle=orthogonalEdgeStyle;rounded=0;html=1;labelBackgroundColor=#ffffff;startArrow=classic;startFill=1;startSize=4;endArrow=classic;endFill=1;endSize=4;jettySize=auto;orthogonalLoop=1;strokeColor=#4277BB;strokeWidth=2;fontSize=12;fontColor=#4277BB;" parent="63" source="244" target="245" edge="1">
          <mxGeometry relative="1" as="geometry" />
        </mxCell>
        <mxCell id="263" style="edgeStyle=orthogonalEdgeStyle;rounded=0;html=1;exitX=0.5;exitY=0;labelBackgroundColor=#ffffff;startArrow=classic;startFill=1;startSize=4;endArrow=classic;endFill=1;endSize=4;jettySize=auto;orthogonalLoop=1;strokeColor=#4277BB;strokeWidth=2;fontSize=12;fontColor=#4277BB;exitDx=0;exitDy=0;" parent="63" source="257" target="211" edge="1">
          <mxGeometry relative="1" as="geometry">
            <Array as="points">
              <mxPoint x="627" y="97" />
            </Array>
          </mxGeometry>
        </mxCell>
        <mxCell id="268" style="edgeStyle=orthogonalEdgeStyle;rounded=0;html=1;labelBackgroundColor=#ffffff;startArrow=none;startFill=0;startSize=4;endArrow=classic;endFill=1;endSize=4;jettySize=auto;orthogonalLoop=1;strokeColor=#4277BB;strokeWidth=2;fontSize=12;fontColor=#4277BB;" parent="63" source="251" target="252" edge="1">
          <mxGeometry relative="1" as="geometry" />
        </mxCell>
        <mxCell id="269" style="edgeStyle=orthogonalEdgeStyle;rounded=0;html=1;labelBackgroundColor=#ffffff;startArrow=none;startFill=0;startSize=4;endArrow=classic;endFill=1;endSize=4;jettySize=auto;orthogonalLoop=1;strokeColor=#4277BB;strokeWidth=2;fontSize=12;fontColor=#4277BB;" parent="63" source="252" target="253" edge="1">
          <mxGeometry relative="1" as="geometry" />
        </mxCell>
        <mxCell id="272" style="edgeStyle=orthogonalEdgeStyle;rounded=0;html=1;labelBackgroundColor=#ffffff;startArrow=classic;startFill=1;startSize=4;endArrow=classic;endFill=1;endSize=4;jettySize=auto;orthogonalLoop=1;strokeColor=#4277BB;strokeWidth=2;fontSize=12;fontColor=#4277BB;exitX=1;exitY=0.5;exitDx=0;exitDy=0;" parent="63" source="253" target="245" edge="1">
          <mxGeometry relative="1" as="geometry">
            <mxPoint x="437" y="411" as="sourcePoint" />
          </mxGeometry>
        </mxCell>
        <mxCell id="102" value="PUBLIC NETWORK" style="text;html=1;align=left;verticalAlign=middle;fontColor=#4277BB;shadow=0;dashed=0;strokeColor=none;fillColor=none;labelBackgroundColor=none;fontStyle=1;fontSize=16;spacingLeft=5;" parent="63" vertex="1">
          <mxGeometry x="10" y="10" width="170" height="20" as="geometry" />
        </mxCell>
        <mxCell id="103" value="" style="line;strokeWidth=3;direction=south;html=1;shadow=0;labelBackgroundColor=none;fillColor=none;gradientColor=none;fontSize=12;fontColor=#4277BB;align=right;strokeColor=#4277BB;" parent="63" vertex="1">
          <mxGeometry x="195" y="1" width="10" height="89" as="geometry" />
        </mxCell>
        <mxCell id="106" value="" style="line;strokeWidth=3;direction=south;html=1;shadow=0;labelBackgroundColor=none;fillColor=none;gradientColor=none;fontSize=12;fontColor=#4277BB;align=right;strokeColor=#4277BB;" parent="63" vertex="1">
          <mxGeometry x="743" width="10" height="40" as="geometry" />
        </mxCell>
        <mxCell id="107" value="CLOUD NETWORK" style="text;html=1;align=left;verticalAlign=middle;fontColor=#4277BB;shadow=0;dashed=0;strokeColor=none;fillColor=none;labelBackgroundColor=none;fontStyle=1;fontSize=16;spacingLeft=5;" parent="63" vertex="1">
          <mxGeometry x="208" y="10" width="190" height="20" as="geometry" />
        </mxCell>
        <mxCell id="108" value="ENTERPRISE NETWORK" style="text;html=1;align=left;verticalAlign=middle;fontColor=#4277BB;shadow=0;dashed=0;strokeColor=none;fillColor=none;labelBackgroundColor=none;fontStyle=1;fontSize=16;spacingLeft=5;" parent="63" vertex="1">
          <mxGeometry x="753" y="6" width="217" height="20" as="geometry" />
        </mxCell>
        <mxCell id="109" value="Application component" style="rounded=0;html=1;shadow=0;labelBackgroundColor=none;strokeColor=none;strokeWidth=2;fillColor=#EBC01A;gradientColor=none;fontSize=12;fontColor=#4277BB;align=left;labelPosition=right;verticalLabelPosition=middle;verticalAlign=middle;spacingLeft=5;" parent="63" vertex="1">
          <mxGeometry x="15" y="616" width="20" height="10" as="geometry" />
        </mxCell>
        <mxCell id="110" value="Infrastructure services" style="rounded=0;html=1;shadow=0;labelBackgroundColor=none;strokeColor=none;strokeWidth=2;fillColor=#8DC642;gradientColor=none;fontSize=12;fontColor=#4277BB;align=left;labelPosition=right;verticalLabelPosition=middle;verticalAlign=middle;spacingLeft=5;" parent="63" vertex="1">
          <mxGeometry x="15" y="636" width="20" height="10" as="geometry" />
        </mxCell>
        <mxCell id="112" value="Data store" style="rounded=0;html=1;shadow=0;labelBackgroundColor=none;strokeColor=none;strokeWidth=2;fillColor=#335D81;gradientColor=none;fontSize=12;fontColor=#4277BB;align=left;labelPosition=right;verticalLabelPosition=middle;verticalAlign=middle;spacingLeft=5;" parent="63" vertex="1">
          <mxGeometry x="15" y="657" width="20" height="10" as="geometry" />
        </mxCell>
        <mxCell id="113" value="Gateway" style="rounded=0;html=1;shadow=0;labelBackgroundColor=none;strokeColor=none;strokeWidth=2;fillColor=#744399;gradientColor=none;fontSize=12;fontColor=#4277BB;align=left;labelPosition=right;verticalLabelPosition=middle;verticalAlign=middle;spacingLeft=5;" parent="63" vertex="1">
          <mxGeometry x="15" y="677" width="20" height="10" as="geometry" />
        </mxCell>
        <mxCell id="115" value="Security" style="rounded=0;html=1;shadow=0;labelBackgroundColor=none;strokeColor=none;strokeWidth=2;fillColor=#E52134;gradientColor=none;fontSize=12;fontColor=#4277BB;align=left;labelPosition=right;verticalLabelPosition=middle;verticalAlign=middle;spacingLeft=5;" parent="63" vertex="1">
          <mxGeometry x="15" y="697" width="20" height="10" as="geometry" />
        </mxCell>
        <mxCell id="117" value="LEGEND" style="text;html=1;align=left;verticalAlign=middle;fontColor=#4277BB;shadow=0;dashed=0;strokeColor=none;fillColor=none;labelBackgroundColor=none;fontStyle=1;fontSize=14;spacingLeft=0;" parent="63" vertex="1">
          <mxGeometry x="15" y="584" width="150" height="20" as="geometry" />
        </mxCell>
        <mxCell id="119" value="BROWSER" style="aspect=fixed;perimeter=ellipsePerimeter;html=1;align=center;shadow=0;image;image=img/lib/ibm/infrastructure/edge_services.svg;labelBackgroundColor=#ffffff;strokeColor=none;strokeWidth=2;fillColor=#808080;gradientColor=none;fontSize=12;fontColor=#4277BB;rounded=0;verticalAlign=top;spacingLeft=5;spacingTop=3;" parent="63" vertex="1">
          <mxGeometry x="170" y="97" width="60" height="60" as="geometry" />
        </mxCell>
        <mxCell id="174" value="" style="swimlane;shadow=0;labelBackgroundColor=#007FFF;strokeColor=#4277BB;fillColor=none;gradientColor=none;fontColor=#000000;align=right;collapsible=0;startSize=0;strokeWidth=3;" parent="63" vertex="1">
          <mxGeometry x="220" y="640" width="510" height="100" as="geometry" />
        </mxCell>
        <mxCell id="214" value="SECURITY" style="aspect=fixed;perimeter=ellipsePerimeter;html=1;align=center;shadow=0;dashed=0;image;image=img/lib/ibm/security/security_services.svg;labelBackgroundColor=#ffffff;strokeColor=#4277BB;strokeWidth=2;fillColor=none;gradientColor=none;fontSize=12;fontColor=#4277BB;spacingTop=3;" parent="174" vertex="1">
          <mxGeometry x="230" y="11" width="60" height="60" as="geometry" />
        </mxCell>
        <mxCell id="190" value="" style="line;strokeWidth=3;direction=south;html=1;shadow=0;labelBackgroundColor=none;fillColor=none;gradientColor=none;fontSize=12;fontColor=#4277BB;align=right;strokeColor=#4277BB;" parent="63" vertex="1">
          <mxGeometry x="195" y="520" width="10" height="240" as="geometry" />
        </mxCell>
        <mxCell id="200" value="" style="line;strokeWidth=3;direction=south;html=1;shadow=0;labelBackgroundColor=none;fillColor=none;gradientColor=none;fontSize=12;fontColor=#4277BB;align=right;strokeColor=#4277BB;" parent="63" vertex="1">
          <mxGeometry x="743" y="520" width="10" height="240" as="geometry" />
        </mxCell>
        <mxCell id="211" value="IP&amp;nbsp;&lt;br&gt;SSH CONNECTION" style="aspect=fixed;perimeter=ellipsePerimeter;html=1;align=center;shadow=0;dashed=0;image;image=img/lib/ibm/infrastructure/transformation_connectivity.svg;labelBackgroundColor=#ffffff;strokeColor=#4277BB;strokeWidth=2;fillColor=none;gradientColor=none;fontSize=12;fontColor=#4277BB;spacingTop=3;" parent="63" vertex="1">
          <mxGeometry x="718" y="58.000000000000036" width="60" height="60" as="geometry" />
        </mxCell>
        <mxCell id="243" value="USER" style="aspect=fixed;perimeter=ellipsePerimeter;html=1;align=center;shadow=0;dashed=0;image;image=img/lib/ibm/users/user.svg;labelBackgroundColor=#ffffff;strokeColor=#4277BB;strokeWidth=2;fillColor=none;gradientColor=none;fontSize=12;fontColor=#4277BB;" parent="63" vertex="1">
          <mxGeometry x="67" y="96.99999999999997" width="60" height="60" as="geometry" />
        </mxCell>
        <mxCell id="244" value="PROHUKUM DOMAIN" style="aspect=fixed;perimeter=ellipsePerimeter;html=1;align=center;shadow=0;dashed=0;image;image=img/lib/ibm/applications/enterprise_applications.svg;labelBackgroundColor=#ffffff;strokeColor=#4277BB;strokeWidth=2;fillColor=none;gradientColor=none;fontSize=12;fontColor=#4277BB;spacingTop=3;" parent="63" vertex="1">
          <mxGeometry x="407" y="58" width="60" height="60" as="geometry" />
        </mxCell>
        <mxCell id="245" value="SERVICE" style="aspect=fixed;perimeter=ellipsePerimeter;html=1;align=center;shadow=0;dashed=0;image;image=img/lib/ibm/analytics/analytics.svg;labelBackgroundColor=#ffffff;strokeColor=#4277BB;strokeWidth=2;fillColor=none;gradientColor=none;fontSize=12;fontColor=#4277BB;spacingTop=3;" parent="63" vertex="1">
          <mxGeometry x="407" y="226" width="60" height="60" as="geometry" />
        </mxCell>
        <mxCell id="247" value="DEVOPS" style="aspect=fixed;perimeter=ellipsePerimeter;html=1;align=center;shadow=0;dashed=0;image;image=img/lib/ibm/users/user.svg;labelBackgroundColor=#ffffff;strokeColor=#4277BB;strokeWidth=2;fillColor=none;gradientColor=none;fontSize=12;fontColor=#4277BB;" parent="63" vertex="1">
          <mxGeometry x="887" y="46" width="60" height="60" as="geometry" />
        </mxCell>
        <mxCell id="250" value="" style="line;strokeWidth=2;html=1;shadow=0;labelBackgroundColor=#ffffff;fillColor=none;gradientColor=none;fontSize=12;fontColor=#4277BB;align=center;dashed=1;dashPattern=5 5;strokeColor=#666666;" parent="63" vertex="1">
          <mxGeometry y="356" width="1000" height="10" as="geometry" />
        </mxCell>
        <mxCell id="251" value="PROHUKUM DB 1" style="aspect=fixed;perimeter=ellipsePerimeter;html=1;align=center;shadow=0;dashed=0;image;image=img/lib/ibm/data/data_sources.svg;labelBackgroundColor=#ffffff;strokeColor=#4277BB;strokeWidth=2;fillColor=none;gradientColor=none;fontSize=12;fontColor=#4277BB;" parent="63" vertex="1">
          <mxGeometry x="35" y="400" width="59" height="59" as="geometry" />
        </mxCell>
        <mxCell id="252" value="DATA CONNECTION" style="aspect=fixed;perimeter=ellipsePerimeter;html=1;align=center;shadow=0;dashed=0;image;image=img/lib/ibm/infrastructure/edge_services.svg;labelBackgroundColor=#ffffff;strokeColor=#4277BB;strokeWidth=2;fillColor=none;gradientColor=none;fontSize=12;fontColor=#4277BB;" parent="63" vertex="1">
          <mxGeometry x="170" y="411" width="60" height="60" as="geometry" />
        </mxCell>
        <mxCell id="253" value="PROHUKUM APP" style="aspect=fixed;perimeter=ellipsePerimeter;html=1;align=center;shadow=0;dashed=0;image;image=img/lib/ibm/applications/enterprise_applications.svg;labelBackgroundColor=#ffffff;strokeColor=#4277BB;strokeWidth=2;fillColor=none;gradientColor=none;fontSize=12;fontColor=#4277BB;" parent="63" vertex="1">
          <mxGeometry x="295" y="411" width="60" height="60" as="geometry" />
        </mxCell>
        <mxCell id="256" value="BACKUP DATA AND APP" style="aspect=fixed;perimeter=ellipsePerimeter;html=1;align=center;shadow=0;dashed=0;image;image=img/lib/ibm/infrastructure/transformation_connectivity.svg;labelBackgroundColor=#ffffff;strokeColor=#4277BB;strokeWidth=2;fillColor=none;gradientColor=none;fontSize=12;fontColor=#4277BB;" parent="63" vertex="1">
          <mxGeometry x="718" y="411" width="60" height="60" as="geometry" />
        </mxCell>
        <mxCell id="257" value="AUTO BACKUP SERVER" style="aspect=fixed;perimeter=ellipsePerimeter;html=1;align=center;shadow=0;dashed=0;image;image=img/lib/ibm/applications/enterprise_applications.svg;labelBackgroundColor=#ffffff;strokeColor=#4277BB;strokeWidth=2;fillColor=none;gradientColor=none;fontSize=12;fontColor=#4277BB;" parent="63" vertex="1">
          <mxGeometry x="597" y="491" width="60" height="60" as="geometry" />
        </mxCell>
        <mxCell id="280" value="" style="line;strokeWidth=3;direction=south;html=1;shadow=0;labelBackgroundColor=none;fillColor=none;gradientColor=none;fontSize=12;fontColor=#4277BB;align=right;strokeColor=#4277BB;" parent="63" vertex="1">
          <mxGeometry x="743" y="170" width="10" height="230" as="geometry" />
        </mxCell>
        <mxCell id="281" value="" style="line;strokeWidth=3;direction=south;html=1;shadow=0;labelBackgroundColor=none;fillColor=none;gradientColor=none;fontSize=12;fontColor=#4277BB;align=right;strokeColor=#4277BB;" parent="63" vertex="1">
          <mxGeometry x="195" y="197" width="10" height="203" as="geometry" />
        </mxCell>
        <mxCell id="285" value="Users" style="rounded=0;html=1;shadow=0;labelBackgroundColor=none;strokeColor=none;strokeWidth=2;fillColor=#C2952D;gradientColor=none;fontSize=12;fontColor=#4277BB;align=left;labelPosition=right;verticalLabelPosition=middle;verticalAlign=middle;spacingLeft=5;" parent="63" vertex="1">
          <mxGeometry x="15" y="717" width="20" height="10" as="geometry" />
        </mxCell>
        <mxCell id="tU0RAKoZX_Dx78mDRnep-290" value="PROHUKUM DB 2" style="aspect=fixed;perimeter=ellipsePerimeter;html=1;align=center;shadow=0;dashed=0;image;image=img/lib/ibm/data/data_sources.svg;labelBackgroundColor=#ffffff;strokeColor=#4277BB;strokeWidth=2;fillColor=none;gradientColor=none;fontSize=12;fontColor=#4277BB;" vertex="1" parent="63">
          <mxGeometry x="35" y="482" width="59" height="59" as="geometry" />
        </mxCell>
        <mxCell id="tU0RAKoZX_Dx78mDRnep-293" style="edgeStyle=orthogonalEdgeStyle;rounded=0;html=1;labelBackgroundColor=#ffffff;startArrow=none;startFill=0;startSize=4;endArrow=classic;endFill=1;endSize=4;jettySize=auto;orthogonalLoop=1;strokeColor=#4277BB;strokeWidth=2;fontSize=12;fontColor=#4277BB;exitX=1;exitY=0.75;exitDx=0;exitDy=0;entryX=0;entryY=1;entryDx=0;entryDy=0;" edge="1" parent="63" source="tU0RAKoZX_Dx78mDRnep-290" target="252">
          <mxGeometry relative="1" as="geometry">
            <mxPoint x="104" y="439" as="sourcePoint" />
            <mxPoint x="180" y="476" as="targetPoint" />
          </mxGeometry>
        </mxCell>
        <mxCell id="tU0RAKoZX_Dx78mDRnep-303" style="edgeStyle=orthogonalEdgeStyle;rounded=0;html=1;labelBackgroundColor=#ffffff;startArrow=none;startFill=0;startSize=4;endArrow=classic;endFill=1;endSize=4;jettySize=auto;orthogonalLoop=1;strokeColor=#4277BB;strokeWidth=2;fontSize=12;fontColor=#4277BB;exitX=0.5;exitY=1;exitDx=0;exitDy=0;entryX=0;entryY=0.5;entryDx=0;entryDy=0;" edge="1" parent="63" source="252" target="256">
          <mxGeometry relative="1" as="geometry">
            <mxPoint x="240" y="451" as="sourcePoint" />
            <mxPoint x="305" y="451" as="targetPoint" />
            <Array as="points">
              <mxPoint x="200" y="506" />
              <mxPoint x="474" y="506" />
              <mxPoint x="474" y="406" />
              <mxPoint x="718" y="406" />
            </Array>
          </mxGeometry>
        </mxCell>
        <mxCell id="tU0RAKoZX_Dx78mDRnep-304" style="edgeStyle=orthogonalEdgeStyle;rounded=0;html=1;labelBackgroundColor=#ffffff;startArrow=classic;startFill=1;startSize=4;endArrow=classic;endFill=1;endSize=4;jettySize=auto;orthogonalLoop=1;strokeColor=#4277BB;strokeWidth=2;fontSize=12;fontColor=#4277BB;entryX=1;entryY=0.5;entryDx=0;entryDy=0;exitX=0;exitY=1;exitDx=0;exitDy=0;" edge="1" parent="63" source="256" target="257">
          <mxGeometry relative="1" as="geometry">
            <mxPoint x="705" y="459" as="sourcePoint" />
            <mxPoint x="705" y="567" as="targetPoint" />
          </mxGeometry>
        </mxCell>
        <mxCell id="tU0RAKoZX_Dx78mDRnep-306" value="DATA STORE PROHUKUM BACKUP" style="aspect=fixed;perimeter=ellipsePerimeter;html=1;align=center;shadow=0;dashed=0;image;image=img/lib/ibm/data/data_sources.svg;labelBackgroundColor=#ffffff;strokeColor=#4277BB;strokeWidth=2;fillColor=none;gradientColor=none;fontSize=12;fontColor=#4277BB;" vertex="1" parent="63">
          <mxGeometry x="855" y="551" width="59" height="59" as="geometry" />
        </mxCell>
        <mxCell id="tU0RAKoZX_Dx78mDRnep-307" style="edgeStyle=orthogonalEdgeStyle;rounded=0;html=1;labelBackgroundColor=#ffffff;startArrow=none;startFill=0;startSize=4;endArrow=classic;endFill=1;endSize=4;jettySize=auto;orthogonalLoop=1;strokeColor=#4277BB;strokeWidth=2;fontSize=12;fontColor=#4277BB;exitX=1;exitY=0.5;exitDx=0;exitDy=0;entryX=0.5;entryY=0;entryDx=0;entryDy=0;" edge="1" parent="63" source="256" target="tU0RAKoZX_Dx78mDRnep-306">
          <mxGeometry relative="1" as="geometry">
            <mxPoint x="785" y="446" as="sourcePoint" />
            <mxPoint x="1303" y="416" as="targetPoint" />
          </mxGeometry>
        </mxCell>
        <mxCell id="284" value="DATA COLLECTION&amp;nbsp;&lt;div&gt;RUNTIME FLOW&lt;/div&gt;" style="text;html=1;align=center;verticalAlign=middle;fontColor=#666666;shadow=0;dashed=0;strokeColor=none;fillColor=none;labelBackgroundColor=none;fontStyle=0;fontSize=14;spacingLeft=0;" parent="1" vertex="1">
          <mxGeometry x="110" y="400" width="150" height="34" as="geometry" />
        </mxCell>
      </root>
    </mxGraphModel>
  </diagram>
</mxfile>
